<svg width="62" height="67" viewBox="0 0 62 67" fill="none" xmlns="http://www.w3.org/2000/svg">
<path d="M30.8457 0C41.8156 0.000227222 50.7399 9.09966 50.7402 20.2842C50.7402 24.5495 49.3065 28.8357 46.5947 32.6777C45.873 33.7 45.1595 35.2078 45.8564 36.5859C47.0293 38.9035 51.1807 39.7295 54.6748 39.7295C58.5433 39.7295 61.6906 42.9357 61.6904 46.876C61.6904 50.8164 58.5433 54.0225 54.6748 54.0225C52.8861 54.0224 50.4572 53.6222 48.2686 53.0791C48.728 53.4329 49.1955 53.788 49.6406 54.1143C52.3867 56.1282 53.2612 59.3656 51.9238 62.5635C51.1335 64.4532 49.5945 65.9274 47.7012 66.6074C46.9706 66.8697 46.2246 67 45.4883 67C44.4685 67 43.4668 66.7493 42.5498 66.2539C37.9173 63.7505 34.9186 59.5527 32.7295 56.4873C32.1342 55.654 31.3731 54.5884 30.8447 54.001C30.3164 54.5883 29.556 55.6541 28.9609 56.4873C26.7719 59.5527 23.7732 63.7507 19.1406 66.2539C17.5613 67.1074 15.7313 67.233 13.9893 66.6074C12.0959 65.9273 10.5571 64.4531 9.7666 62.5635C8.42915 59.3658 9.30382 56.1282 12.0498 54.1143C12.4947 53.788 12.9626 53.4331 13.4219 53.0791C11.233 53.6223 8.80459 54.0225 7.01562 54.0225C3.14732 54.0224 2.80257e-05 50.8164 0 46.876C0 42.9356 3.14718 39.7295 7.01562 39.7295C10.5098 39.7295 14.6611 38.9037 15.834 36.5859C16.5311 35.2078 15.8172 33.7001 15.0957 32.6777C12.3838 28.8357 10.9502 24.5495 10.9502 20.2842C10.9504 9.09952 19.8756 0 30.8457 0ZM23.1934 17.582C20.768 17.582 18.8018 19.8756 18.8018 22.7051C18.8018 25.5345 20.768 27.8281 23.1934 27.8281C25.6186 27.828 27.5849 25.5344 27.585 22.7051C27.585 19.8757 25.6186 17.5822 23.1934 17.582ZM38.499 17.582C36.0737 17.582 34.1074 19.8756 34.1074 22.7051C34.1075 25.5345 36.0737 27.8281 38.499 27.8281C40.9243 27.828 42.8906 25.5345 42.8906 22.7051C42.8906 19.8757 40.9243 17.5821 38.499 17.582Z" fill="#006A61"/>
</svg>
